<svg version="1.0" xmlns="http://www.w3.org/2000/svg"
 width="512.000000pt" height="512.000000pt" viewBox="0 0 512.000000 512.000000"
 preserveAspectRatio="xMidYMid meet">
<g transform="translate(0.000000,512.000000) scale(0.100000,-0.100000)"
fill="#000000" stroke="none">
<path d="M446 4434 c-195 -47 -379 -230 -431 -430 -13 -51 -15 -233 -15 -1444
0 -1211 2 -1393 15 -1444 42 -160 169 -314 317 -385 46 -21 107 -44 136 -50
37 -8 523 -11 1601 -11 l1548 0 94 24 c175 45 337 135 448 249 33 34 242 286
465 561 491 604 503 625 494 818 -3 73 -10 105 -30 151 -51 110 -160 199 -298
243 -46 14 -107 18 -362 22 l-308 4 0 257 c0 284 -6 324 -63 441 -43 88 -168
213 -257 258 -137 69 -93 65 -957 69 l-783 4 0 87 c0 48 -7 114 -15 146 -53
202 -237 384 -436 431 -91 21 -1074 21 -1163 -1z m1118 -358 c22 -11 54 -35
72 -53 61 -60 67 -83 75 -258 3 -88 11 -171 17 -185 21 -52 70 -106 123 -135
l54 -30 845 -5 845 -5 47 -28 c26 -15 59 -43 74 -62 49 -64 53 -92 54 -342 l0
-232 -1082 -3 -1083 -4 -85 -23 c-179 -49 -349 -149 -462 -270 -35 -37 -207
-245 -383 -462 l-320 -395 -3 1135 c-1 625 0 1155 3 1177 11 79 80 156 170
191 22 9 160 11 515 10 457 -2 487 -3 524 -21z m3156 -1711 c57 -29 65 -79 23
-140 -58 -86 -825 -1025 -868 -1063 -25 -22 -78 -56 -118 -75 -144 -72 -28
-67 -1694 -67 -1357 0 -1506 2 -1543 16 -22 9 -40 17 -40 18 0 0 -4 16 -9 33
-8 27 -5 41 14 77 32 59 814 1025 873 1076 51 46 163 104 237 125 41 11 323
13 1573 14 1340 1 1527 -1 1552 -14z"/>
</g>
</svg>
